<?xml version="1.0" encoding="UTF-8" standalone="no"?>
<!-- Created with Inkscape (http://www.inkscape.org/) -->

<svg
   xmlns:svg="http://www.w3.org/2000/svg"
   xmlns="http://www.w3.org/2000/svg"
   version="1.1"
   width="272"
   height="172"
   id="svg2">
  <defs
     id="defs4" />
  <g
     transform="translate(41.5,-994.3622)"
     id="layer1">
    <path
       d="M 0,18.5 38,37 76,18.5 38,0 0,18.5 z"
       transform="translate(0,1015.3622)"
       id="path2828"
       style="fill:none;stroke:#000000;stroke-width:5;stroke-linecap:butt;stroke-linejoin:bevel;stroke-miterlimit:0;stroke-opacity:1;stroke-dasharray:none" />
    <path
       d="m -38,1015.3622 38,18.5 38,-18.5 -38,-18.5 -38,18.5 z"
       id="path2828-1"
       style="fill:none;stroke:#000000;stroke-width:5;stroke-linecap:butt;stroke-linejoin:bevel;stroke-miterlimit:0;stroke-opacity:1;stroke-dasharray:none" />
    <path
       d="m 38,1015.3622 38,18.5 38,-18.5 -38,-18.5 -38,18.5 z"
       id="path2828-1-7"
       style="fill:none;stroke:#000000;stroke-width:5;stroke-linecap:butt;stroke-linejoin:bevel;stroke-miterlimit:0;stroke-opacity:1;stroke-dasharray:none" />
    <path
       d="m -0.5,1070.8622 38,18.5 38,-18.5 -38,-18.5 -38,18.5 z"
       id="path2828-4"
       style="fill:#00da00;fill-opacity:1;stroke:#000000;stroke-width:5;stroke-linecap:butt;stroke-linejoin:bevel;stroke-miterlimit:0;stroke-opacity:1;stroke-dasharray:none" />
    <path
       d="m -38.5,1052.3622 38,18.5 38,-18.5 -38,-18.5 -38,18.5 z"
       id="path2828-1-0"
       style="fill:none;stroke:#000000;stroke-width:5;stroke-linecap:butt;stroke-linejoin:bevel;stroke-miterlimit:0;stroke-opacity:1;stroke-dasharray:none" />
    <path
       d="m 37.5,1052.3622 38,18.5 38,-18.5 -38,-18.5 -38,18.5 z"
       id="path2828-1-7-9"
       style="fill:#00da00;fill-opacity:1;stroke:#000000;stroke-width:5;stroke-linecap:butt;stroke-linejoin:bevel;stroke-miterlimit:0;stroke-opacity:1;stroke-dasharray:none" />
    <path
       d="m -0.5,1108.3622 38,18.5 38,-18.5 -38,-18.5 -38,18.5 z"
       id="path2828-48"
       style="fill:#00da00;fill-opacity:1;stroke:#000000;stroke-width:5;stroke-linecap:butt;stroke-linejoin:bevel;stroke-miterlimit:0;stroke-opacity:1;stroke-dasharray:none" />
    <path
       d="m -38.5,1089.8622 38,18.5 38,-18.5 -38,-18.5 -38,18.5 z"
       id="path2828-1-8"
       style="fill:#00da00;fill-opacity:1;stroke:#000000;stroke-width:5;stroke-linecap:butt;stroke-linejoin:bevel;stroke-miterlimit:0;stroke-opacity:1;stroke-dasharray:none" />
    <path
       d="m 37.5,1089.8622 38,18.5 38,-18.5 -38,-18.5 -38,18.5 z"
       id="path2828-1-7-2"
       style="fill:#00da00;fill-opacity:1;stroke:#000000;stroke-width:5;stroke-linecap:butt;stroke-linejoin:bevel;stroke-miterlimit:0;stroke-opacity:1;stroke-dasharray:none" />
    <path
       d="m -1,1145.3622 38,18.5 38,-18.5 -38,-18.5 -38,18.5 z"
       id="path2828-4-4"
       style="fill:none;stroke:#000000;stroke-width:5;stroke-linecap:butt;stroke-linejoin:bevel;stroke-miterlimit:0;stroke-opacity:1;stroke-dasharray:none" />
    <path
       d="m -39,1126.8622 38,18.5 38,-18.5 -38,-18.5 -38,18.5 z"
       id="path2828-1-0-5"
       style="fill:none;stroke:#000000;stroke-width:5;stroke-linecap:butt;stroke-linejoin:bevel;stroke-miterlimit:0;stroke-opacity:1;stroke-dasharray:none" />
    <path
       d="m 37,1126.8622 38,18.5 38,-18.5 -38,-18.5 -38,18.5 z"
       id="path2828-1-7-9-5"
       style="fill:#00da00;fill-opacity:1;stroke:#000000;stroke-width:5;stroke-linecap:butt;stroke-linejoin:bevel;stroke-miterlimit:0;stroke-opacity:1;stroke-dasharray:none" />
    <path
       d="m 114,1052.3622 38,18.5 38,-18.5 -38,-18.5 -38,18.5 z"
       id="path2828-17"
       style="fill:#00da00;fill-opacity:1;stroke:#000000;stroke-width:5;stroke-linecap:butt;stroke-linejoin:bevel;stroke-miterlimit:0;stroke-opacity:1;stroke-dasharray:none" />
    <path
       d="m 76,1033.8622 38,18.5 38,-18.5 -38,-18.5 -38,18.5 z"
       id="path2828-1-1"
       style="fill:#00da00;fill-opacity:1;stroke:#000000;stroke-width:5;stroke-linecap:butt;stroke-linejoin:bevel;stroke-miterlimit:0;stroke-opacity:1;stroke-dasharray:none" />
    <path
       d="m 152,1033.8622 38,18.5 38,-18.5 -38,-18.5 -38,18.5 z"
       id="path2828-1-7-1"
       style="fill:none;stroke:#000000;stroke-width:5;stroke-linecap:butt;stroke-linejoin:bevel;stroke-miterlimit:0;stroke-opacity:1;stroke-dasharray:none" />
    <path
       d="m 113.5,1089.3622 38,18.5 38,-18.5 -38,-18.5 -38,18.5 z"
       id="path2828-4-5"
       style="fill:#00da00;fill-opacity:1;stroke:#000000;stroke-width:5;stroke-linecap:butt;stroke-linejoin:bevel;stroke-miterlimit:0;stroke-opacity:1;stroke-dasharray:none" />
    <path
       d="m 75.5,1070.8622 38,18.5 38,-18.5 -38,-18.5 -38,18.5 z"
       id="path2828-1-0-2"
       style="fill:#00da00;fill-opacity:1;stroke:#000000;stroke-width:5;stroke-linecap:butt;stroke-linejoin:bevel;stroke-miterlimit:0;stroke-opacity:1;stroke-dasharray:none" />
    <path
       d="m 151.5,1070.8622 38,18.5 38,-18.5 -38,-18.5 -38,18.5 z"
       id="path2828-1-7-9-7"
       style="fill:#00da00;fill-opacity:1;stroke:#000000;stroke-width:5;stroke-linecap:butt;stroke-linejoin:bevel;stroke-miterlimit:0;stroke-opacity:1;stroke-dasharray:none" />
    <path
       d="m 113.5,1126.8622 38,18.5 38,-18.5 -38,-18.5 -38,18.5 z"
       id="path2828-48-6"
       style="fill:none;stroke:#000000;stroke-width:5;stroke-linecap:butt;stroke-linejoin:bevel;stroke-miterlimit:0;stroke-opacity:1;stroke-dasharray:none" />
    <path
       d="m 75.5,1108.3622 38,18.5 38,-18.5 -38,-18.5 -38,18.5 z"
       id="path2828-1-8-1"
       style="fill:#00da00;fill-opacity:1;stroke:#000000;stroke-width:5;stroke-linecap:butt;stroke-linejoin:bevel;stroke-miterlimit:0;stroke-opacity:1;stroke-dasharray:none" />
    <path
       d="m 151.5,1108.3622 38,18.5 38,-18.5 -38,-18.5 -38,18.5 z"
       id="path2828-1-7-2-4"
       style="fill:none;stroke:#000000;stroke-width:5;stroke-linecap:butt;stroke-linejoin:bevel;stroke-miterlimit:0;stroke-opacity:1;stroke-dasharray:none" />
    <path
       d="m 75,1145.3622 38,18.5 38,-18.5 -38,-18.5 -38,18.5 z"
       id="path2828-1-0-5-3"
       style="fill:none;stroke:#000000;stroke-width:5;stroke-linecap:butt;stroke-linejoin:bevel;stroke-miterlimit:0;stroke-opacity:1;stroke-dasharray:none" />
    <path
       d="m 151,1145.3622 38,18.5 38,-18.5 -38,-18.5 -38,18.5 z"
       id="path2828-1-7-9-5-2"
       style="fill:none;stroke:#000000;stroke-width:5;stroke-linecap:butt;stroke-linejoin:bevel;stroke-miterlimit:0;stroke-opacity:1;stroke-dasharray:none" />
    <path
       d="m 114,1015.3622 38,18.5 38,-18.5 -38,-18.5 -38,18.5 z"
       id="path2828-1-7-21"
       style="fill:none;stroke:#000000;stroke-width:5;stroke-linecap:butt;stroke-linejoin:bevel;stroke-miterlimit:0;stroke-opacity:1;stroke-dasharray:none" />
  </g>
</svg>
