<?xml version="1.0" encoding="UTF-8" standalone="no"?>
<!-- Created with Inkscape (http://www.inkscape.org/) -->

<svg
   xmlns:dc="http://purl.org/dc/elements/1.1/"
   xmlns:cc="http://creativecommons.org/ns#"
   xmlns:rdf="http://www.w3.org/1999/02/22-rdf-syntax-ns#"
   xmlns:svg="http://www.w3.org/2000/svg"
   xmlns="http://www.w3.org/2000/svg"
   xmlns:sodipodi="http://sodipodi.sourceforge.net/DTD/sodipodi-0.dtd"
   xmlns:inkscape="http://www.inkscape.org/namespaces/inkscape"
   version="1.1"
   width="272"
   height="172"
   id="svg2"
   inkscape:version="0.47 r22583"
   sodipodi:docname="singleSelect.svg">
  <metadata
     id="metadata2845">
    <rdf:RDF>
      <cc:Work
         rdf:about="">
        <dc:format>image/svg+xml</dc:format>
        <dc:type
           rdf:resource="http://purl.org/dc/dcmitype/StillImage" />
      </cc:Work>
    </rdf:RDF>
  </metadata>
  <sodipodi:namedview
     pagecolor="#ffffff"
     bordercolor="#666666"
     borderopacity="1"
     objecttolerance="10"
     gridtolerance="10"
     guidetolerance="10"
     inkscape:pageopacity="0"
     inkscape:pageshadow="2"
     inkscape:window-width="1920"
     inkscape:window-height="1138"
     id="namedview2843"
     showgrid="false"
     inkscape:zoom="3.1891892"
     inkscape:cx="174.25675"
     inkscape:cy="82.21229"
     inkscape:window-x="-8"
     inkscape:window-y="-8"
     inkscape:window-maximized="1"
     inkscape:current-layer="svg2" />
  <defs
     id="defs4">
    <inkscape:perspective
       sodipodi:type="inkscape:persp3d"
       inkscape:vp_x="0 : 18.5 : 1"
       inkscape:vp_y="0 : 1000 : 0"
       inkscape:vp_z="76 : 18.5 : 1"
       inkscape:persp3d-origin="38 : 12.333333 : 1"
       id="perspective2847" />
  </defs>
  <g
     transform="translate(41.5,-994.3622)"
     id="layer1">
    <path
       d="M 0,18.5 38,37 76,18.5 38,0 0,18.5 z"
       transform="translate(0,1015.3622)"
       id="path2828"
       style="fill:none;stroke:#000000;stroke-width:5;stroke-linecap:butt;stroke-linejoin:bevel;stroke-miterlimit:0;stroke-opacity:1;stroke-dasharray:none" />
    <path
       d="m -38,1015.3622 38,18.5 38,-18.5 -38,-18.5 -38,18.5 z"
       id="path2828-1"
       style="fill:none;stroke:#000000;stroke-width:5;stroke-linecap:butt;stroke-linejoin:bevel;stroke-miterlimit:0;stroke-opacity:1;stroke-dasharray:none" />
    <path
       d="m 38,1015.3622 38,18.5 38,-18.5 -38,-18.5 -38,18.5 z"
       id="path2828-1-7"
       style="fill:none;stroke:#000000;stroke-width:5;stroke-linecap:butt;stroke-linejoin:bevel;stroke-miterlimit:0;stroke-opacity:1;stroke-dasharray:none" />
    <path
       d="m -0.5,1070.8622 38,18.5 38,-18.5 -38,-18.5 -38,18.5 z"
       id="path2828-4"
       style="fill:none;stroke:#000000;stroke-width:5;stroke-linecap:butt;stroke-linejoin:bevel;stroke-miterlimit:0;stroke-opacity:1;stroke-dasharray:none" />
    <path
       d="m -38.5,1052.3622 38,18.5 38,-18.5 -38,-18.5 -38,18.5 z"
       id="path2828-1-0"
       style="fill:none;stroke:#000000;stroke-width:5;stroke-linecap:butt;stroke-linejoin:bevel;stroke-miterlimit:0;stroke-opacity:1;stroke-dasharray:none" />
    <path
       d="m 37.5,1052.3622 38,18.5 38,-18.5 -38,-18.5 -38,18.5 z"
       id="path2828-1-7-9"
       style="fill:none;stroke:#000000;stroke-width:5;stroke-linecap:butt;stroke-linejoin:bevel;stroke-miterlimit:0;stroke-opacity:1;stroke-dasharray:none" />
    <path
       d="m -0.5,1108.3622 38,18.5 38,-18.5 -38,-18.5 -38,18.5 z"
       id="path2828-48"
       style="fill:none;stroke:#000000;stroke-width:5;stroke-linecap:butt;stroke-linejoin:bevel;stroke-miterlimit:0;stroke-opacity:1;stroke-dasharray:none" />
    <path
       d="m -38.5,1089.8622 38,18.5 38,-18.5 -38,-18.5 -38,18.5 z"
       id="path2828-1-8"
       style="fill:none;stroke:#000000;stroke-width:5;stroke-linecap:butt;stroke-linejoin:bevel;stroke-miterlimit:0;stroke-opacity:1;stroke-dasharray:none" />
    <path
       d="m 37.5,1089.8622 38,18.5 38,-18.5 -38,-18.5 -38,18.5 z"
       id="path2828-1-7-2"
       style="fill:none;stroke:#000000;stroke-width:5;stroke-linecap:butt;stroke-linejoin:bevel;stroke-miterlimit:0;stroke-opacity:1;stroke-dasharray:none" />
    <path
       d="m -1,1145.3622 38,18.5 38,-18.5 -38,-18.5 -38,18.5 z"
       id="path2828-4-4"
       style="fill:none;stroke:#000000;stroke-width:5;stroke-linecap:butt;stroke-linejoin:bevel;stroke-miterlimit:0;stroke-opacity:1;stroke-dasharray:none" />
    <path
       d="m -39,1126.8622 38,18.5 38,-18.5 -38,-18.5 -38,18.5 z"
       id="path2828-1-0-5"
       style="fill:none;stroke:#000000;stroke-width:5;stroke-linecap:butt;stroke-linejoin:bevel;stroke-miterlimit:0;stroke-opacity:1;stroke-dasharray:none" />
    <path
       d="m 37,1126.8622 38,18.5 38,-18.5 -38,-18.5 -38,18.5 z"
       id="path2828-1-7-9-5"
       style="fill:none;stroke:#000000;stroke-width:5;stroke-linecap:butt;stroke-linejoin:bevel;stroke-miterlimit:0;stroke-opacity:1;stroke-dasharray:none" />
    <path
       d="m 114,1052.3622 38,18.5 38,-18.5 -38,-18.5 -38,18.5 z"
       id="path2828-17"
       style="fill:none;stroke:#000000;stroke-width:5;stroke-linecap:butt;stroke-linejoin:bevel;stroke-miterlimit:0;stroke-opacity:1;stroke-dasharray:none" />
    <path
       d="m 76,1033.8622 38,18.5 38,-18.5 -38,-18.5 -38,18.5 z"
       id="path2828-1-1"
       style="fill:none;stroke:#000000;stroke-width:5;stroke-linecap:butt;stroke-linejoin:bevel;stroke-miterlimit:0;stroke-opacity:1;stroke-dasharray:none" />
    <path
       d="m 152,1033.8622 38,18.5 38,-18.5 -38,-18.5 -38,18.5 z"
       id="path2828-1-7-1"
       style="fill:none;stroke:#000000;stroke-width:5;stroke-linecap:butt;stroke-linejoin:bevel;stroke-miterlimit:0;stroke-opacity:1;stroke-dasharray:none" />
    <path
       d="m 113.5,1089.3622 38,18.5 38,-18.5 -38,-18.5 -38,18.5 z"
       id="path2828-4-5"
       style="fill:none;stroke:#000000;stroke-width:5;stroke-linecap:butt;stroke-linejoin:bevel;stroke-miterlimit:0;stroke-opacity:1;stroke-dasharray:none" />
    <path
       d="m 75.5,1070.8622 38,18.5 38,-18.5 -38,-18.5 -38,18.5 z"
       id="path2828-1-0-2"
       style="fill:none;stroke:#000000;stroke-width:5;stroke-linecap:butt;stroke-linejoin:bevel;stroke-miterlimit:0;stroke-opacity:1;stroke-dasharray:none" />
    <path
       d="m 151.5,1070.8622 38,18.5 38,-18.5 -38,-18.5 -38,18.5 z"
       id="path2828-1-7-9-7"
       style="fill:none;stroke:#000000;stroke-width:5;stroke-linecap:butt;stroke-linejoin:bevel;stroke-miterlimit:0;stroke-opacity:1;stroke-dasharray:none" />
    <path
       d="m 113.5,1126.8622 38,18.5 38,-18.5 -38,-18.5 -38,18.5 z"
       id="path2828-48-6"
       style="fill:none;stroke:#000000;stroke-width:5;stroke-linecap:butt;stroke-linejoin:bevel;stroke-miterlimit:0;stroke-opacity:1;stroke-dasharray:none" />
    <path
       d="m 75.5,1108.3622 38,18.5 38,-18.5 -38,-18.5 -38,18.5 z"
       id="path2828-1-8-1"
       style="fill:#00da00;fill-opacity:1;stroke:#000000;stroke-width:5;stroke-linecap:butt;stroke-linejoin:bevel;stroke-miterlimit:0;stroke-opacity:1;stroke-dasharray:none" />
    <path
       d="m 151.5,1108.3622 38,18.5 38,-18.5 -38,-18.5 -38,18.5 z"
       id="path2828-1-7-2-4"
       style="fill:none;stroke:#000000;stroke-width:5;stroke-linecap:butt;stroke-linejoin:bevel;stroke-miterlimit:0;stroke-opacity:1;stroke-dasharray:none" />
    <path
       d="m 75,1145.3622 38,18.5 38,-18.5 -38,-18.5 -38,18.5 z"
       id="path2828-1-0-5-3"
       style="fill:none;stroke:#000000;stroke-width:5;stroke-linecap:butt;stroke-linejoin:bevel;stroke-miterlimit:0;stroke-opacity:1;stroke-dasharray:none" />
    <path
       d="m 151,1145.3622 38,18.5 38,-18.5 -38,-18.5 -38,18.5 z"
       id="path2828-1-7-9-5-2"
       style="fill:none;stroke:#000000;stroke-width:5;stroke-linecap:butt;stroke-linejoin:bevel;stroke-miterlimit:0;stroke-opacity:1;stroke-dasharray:none" />
    <path
       d="m 114,1015.3622 38,18.5 38,-18.5 -38,-18.5 -38,18.5 z"
       id="path2828-1-7-21"
       style="fill:none;stroke:#000000;stroke-width:5;stroke-linecap:butt;stroke-linejoin:bevel;stroke-miterlimit:0;stroke-opacity:1;stroke-dasharray:none" />
  </g>
</svg>
