<?xml version="1.0" encoding="UTF-8" standalone="no"?>
<!-- Created with Inkscape (http://www.inkscape.org/) -->

<svg
   xmlns:dc="http://purl.org/dc/elements/1.1/"
   xmlns:cc="http://creativecommons.org/ns#"
   xmlns:rdf="http://www.w3.org/1999/02/22-rdf-syntax-ns#"
   xmlns:svg="http://www.w3.org/2000/svg"
   xmlns="http://www.w3.org/2000/svg"
   version="1.1"
   width="272"
   height="172"
   id="svg2">
  <metadata
     id="metadata31">
    <rdf:RDF>
      <cc:Work
         rdf:about="">
        <dc:format>image/svg+xml</dc:format>
        <dc:type
           rdf:resource="http://purl.org/dc/dcmitype/StillImage" />
        <dc:title></dc:title>
      </cc:Work>
    </rdf:RDF>
  </metadata>
  <defs
     id="defs4" />
  <path
     d="M 117,114 155,132.5 193,114 155,95.5 117,114 z"
     id="path2828-1-8-1"
     style="fill:#000000;fill-opacity:0.47058824;stroke:#000000;stroke-width:5;stroke-linecap:butt;stroke-linejoin:bevel;stroke-miterlimit:0;stroke-opacity:1;stroke-dasharray:none" />
  <path
     d="m 116.5,151 38,18.5 38,-18.5 -38,-18.5 -38,18.5 z"
     id="path2828-1-0-5-3"
     style="fill:#000000;fill-opacity:0.94117647;stroke:#000000;stroke-width:5;stroke-linecap:butt;stroke-linejoin:bevel;stroke-miterlimit:0;stroke-opacity:1;stroke-dasharray:none" />
  <path
     d="M 79,95.5 117,114 155,95.5 117,77 79,95.5 z"
     id="path2828-1-7-2"
     style="fill:#000000;fill-opacity:0.23529412;stroke:#000000;stroke-width:5;stroke-linecap:butt;stroke-linejoin:bevel;stroke-miterlimit:0;stroke-opacity:1;stroke-dasharray:none" />
  <path
     d="M 117,76.5 155,95 193,76.5 155,58 117,76.5 z"
     id="path2828-1-0-2"
     style="fill:none;stroke:#000000;stroke-width:5;stroke-linecap:butt;stroke-linejoin:bevel;stroke-miterlimit:0;stroke-opacity:1;stroke-dasharray:none" />
  <path
     d="M 79,58 117,76.5 155,58 117,39.5 79,58 z"
     id="path2828-1-7-9"
     style="fill:#000000;fill-opacity:0.23529412;stroke:#000000;stroke-width:5;stroke-linecap:butt;stroke-linejoin:bevel;stroke-miterlimit:0;stroke-opacity:1;stroke-dasharray:none" />
  <path
     d="m 41.5,39.5 38,18.5 38,-18.5 -38,-18.5 -38,18.5 z"
     id="path2828"
     style="fill:#000000;fill-opacity:0.47058824;stroke:#000000;stroke-width:5;stroke-linecap:butt;stroke-linejoin:bevel;stroke-miterlimit:0;stroke-opacity:1;stroke-dasharray:none" />
  <path
     d="M 3.5,21 41.5,39.5 79.5,21 41.5,2.5 3.5,21 z"
     id="path2828-1"
     style="fill:#000000;fill-opacity:0.70588235;stroke:#000000;stroke-width:5;stroke-linecap:butt;stroke-linejoin:bevel;stroke-miterlimit:0;stroke-opacity:1;stroke-dasharray:none" />
  <path
     d="m 79.5,21 38,18.5 38,-18.5 -38,-18.5 -38,18.5 z"
     id="path2828-1-7"
     style="fill:#000000;fill-opacity:0.70588235;stroke:#000000;stroke-width:5;stroke-linecap:butt;stroke-linejoin:bevel;stroke-miterlimit:0;stroke-opacity:1;stroke-dasharray:none" />
  <path
     d="M 41,76.5 79,95 117,76.5 79,58 41,76.5 z"
     id="path2828-4"
     style="fill:#000000;fill-opacity:0.47058824;stroke:#000000;stroke-width:5;stroke-linecap:butt;stroke-linejoin:bevel;stroke-miterlimit:0;stroke-opacity:1;stroke-dasharray:none" />
  <path
     d="M 3,58 41,76.5 79,58 41,39.5 3,58 z"
     id="path2828-1-0"
     style="fill:#000000;fill-opacity:0.70588235;stroke:#000000;stroke-width:5;stroke-linecap:butt;stroke-linejoin:bevel;stroke-miterlimit:0;stroke-opacity:1;stroke-dasharray:none" />
  <path
     d="M 41,114 79,132.5 117,114 79,95.5 41,114 z"
     id="path2828-48"
     style="fill:#000000;fill-opacity:0.47058824;stroke:#000000;stroke-width:5;stroke-linecap:butt;stroke-linejoin:bevel;stroke-miterlimit:0;stroke-opacity:1;stroke-dasharray:none" />
  <path
     d="M 3,95.5 41,114 79,95.5 41,77 3,95.5 z"
     id="path2828-1-8"
     style="fill:#000000;fill-opacity:0.70588235;stroke:#000000;stroke-width:5;stroke-linecap:butt;stroke-linejoin:bevel;stroke-miterlimit:0;stroke-opacity:1;stroke-dasharray:none" />
  <path
     d="m 40.5,151 38,18.5 38,-18.5 -38,-18.5 -38,18.5 z"
     id="path2828-4-4"
     style="fill:#000000;fill-opacity:0.94117647;stroke:#000000;stroke-width:5;stroke-linecap:butt;stroke-linejoin:bevel;stroke-miterlimit:0;stroke-opacity:1;stroke-dasharray:none" />
  <path
     d="m 2.5,132.5 38,18.5 38,-18.5 -38,-18.5 -38,18.5 z"
     id="path2828-1-0-5"
     style="fill:#000000;fill-opacity:0.70588235;stroke:#000000;stroke-width:5;stroke-linecap:butt;stroke-linejoin:bevel;stroke-miterlimit:0;stroke-opacity:1;stroke-dasharray:none" />
  <path
     d="m 78.5,132.5 38,18.5 38,-18.5 -38,-18.5 -38,18.5 z"
     id="path2828-1-7-9-5"
     style="fill:#000000;fill-opacity:0.70588235;stroke:#000000;stroke-width:5;stroke-linecap:butt;stroke-linejoin:bevel;stroke-miterlimit:0;stroke-opacity:1;stroke-dasharray:none" />
  <path
     d="m 155.5,58 38,18.5 38,-18.5 -38,-18.5 -38,18.5 z"
     id="path2828-17"
     style="fill:#000000;fill-opacity:0.23529412;stroke:#000000;stroke-width:5;stroke-linecap:butt;stroke-linejoin:bevel;stroke-miterlimit:0;stroke-opacity:1;stroke-dasharray:none" />
  <path
     d="m 117.5,39.5 38,18.5 38,-18.5 -38,-18.5 -38,18.5 z"
     id="path2828-1-1"
     style="fill:#000000;fill-opacity:0.47058824;stroke:#000000;stroke-width:5;stroke-linecap:butt;stroke-linejoin:bevel;stroke-miterlimit:0;stroke-opacity:1;stroke-dasharray:none" />
  <path
     d="m 193.5,39.5 38,18.5 38,-18.5 -38,-18.5 -38,18.5 z"
     id="path2828-1-7-1"
     style="fill:#000000;fill-opacity:0.47058824;stroke:#000000;stroke-width:5;stroke-linecap:butt;stroke-linejoin:bevel;stroke-miterlimit:0;stroke-opacity:1;stroke-dasharray:none" />
  <path
     d="M 155,95 193,113.5 231,95 193,76.5 155,95 z"
     id="path2828-4-5"
     style="fill:#000000;fill-opacity:0.23529412;stroke:#000000;stroke-width:5;stroke-linecap:butt;stroke-linejoin:bevel;stroke-miterlimit:0;stroke-opacity:1;stroke-dasharray:none" />
  <path
     d="M 193,76.5 231,95 269,76.5 231,58 193,76.5 z"
     id="path2828-1-7-9-7"
     style="fill:#000000;fill-opacity:0.47058824;stroke:#000000;stroke-width:5;stroke-linecap:butt;stroke-linejoin:bevel;stroke-miterlimit:0;stroke-opacity:1;stroke-dasharray:none" />
  <path
     d="M 155,132.5 193,151 231,132.5 193,114 155,132.5 z"
     id="path2828-48-6"
     style="fill:#000000;fill-opacity:0.70588235;stroke:#000000;stroke-width:5;stroke-linecap:butt;stroke-linejoin:bevel;stroke-miterlimit:0;stroke-opacity:1;stroke-dasharray:none" />
  <path
     d="M 193,114 231,132.5 269,114 231,95.5 193,114 z"
     id="path2828-1-7-2-4"
     style="fill:#000000;fill-opacity:0.47058824;stroke:#000000;stroke-width:5;stroke-linecap:butt;stroke-linejoin:bevel;stroke-miterlimit:0;stroke-opacity:1;stroke-dasharray:none" />
  <path
     d="m 192.5,151 38,18.5 38,-18.5 -38,-18.5 -38,18.5 z"
     id="path2828-1-7-9-5-2"
     style="fill:#000000;fill-opacity:0.94117647;stroke:#000000;stroke-width:5;stroke-linecap:butt;stroke-linejoin:bevel;stroke-miterlimit:0;stroke-opacity:1;stroke-dasharray:none" />
  <path
     d="m 155.5,21 38,18.5 38,-18.5 -38,-18.5 -38,18.5 z"
     id="path2828-1-7-21"
     style="fill:#000000;fill-opacity:0.70588235;stroke:#000000;stroke-width:5;stroke-linecap:butt;stroke-linejoin:bevel;stroke-miterlimit:0;stroke-opacity:1;stroke-dasharray:none" />
</svg>
